@startuml
!define Table(name,desc) class name as "desc" << (T, yellow) >>
!define primary_key(x) <u>x</u>
!define foreign_key(x) <color:green>x</color>

Table(user, "User") {
    -primary_key(id) : int
    +username : varchar
    +password : varchar
}

Table(task, "Task") {
    -primary_key(id) : int
    -foreign_key(user_id) : int
    +title : varchar
    +description : text
    +status : varchar
}

Table(statistic, "Statistic") {
    -primary_key(id) : int
    -foreign_key(task_id) : int
    +views : int
    +likes : int
}

Table(comment, "Comment") {
    -primary_key(id) : int
    -foreign_key(task_id) : int
    -foreign_key(user_id) : int
    -foreign_key(parent_id) : int
    +text : text
    +created_at : datetime
}

user ---> task
user ---> comment
task ---> statistic
task ---> comment

comment ---> comment
@enduml